<svg id="CISM_Icon_Help_Blue" xmlns="http://www.w3.org/2000/svg" viewBox="0 0 43.69 43.69"><defs><style>.cls-1{fill:#f2f2f2;}.cls-2{fill:none;stroke:#00bcd4;stroke-miterlimit:10;opacity:0.5;}</style></defs><title>CISM_Icon_Help_Blue</title><path class="cls-1" d="M31.78,34.63H29.7V32.89a8.2,8.2,0,0,1,.23-2.3,3.68,3.68,0,0,1,.66-1.19q.45-.56,1.17-1.29a11.29,11.29,0,0,0,1.44-1.7,3,3,0,0,0,.51-1.66A2.16,2.16,0,0,0,33,23a2.67,2.67,0,0,0-1.74-.53q-2.61,0-2.9,2.87H26.49a5.39,5.39,0,0,1,1-3.25,4.82,4.82,0,0,1,3.9-1.61,4.86,4.86,0,0,1,3.19,1A4,4,0,0,1,36,24.74a4.34,4.34,0,0,1-.75,2.48,16.15,16.15,0,0,1-1.8,2,5.32,5.32,0,0,0-1.58,2.26,10.6,10.6,0,0,0-.13,2.07Q31.77,34,31.78,34.63Zm-1.05,2.52a1.66,1.66,0,0,1,1.22.51,1.73,1.73,0,0,1-1.23,2.94,1.63,1.63,0,0,1-1.22-.51A1.61,1.61,0,0,1,29,38.9a1.67,1.67,0,0,1,.5-1.23A1.7,1.7,0,0,1,30.73,37.15Z" transform="translate(-9.15 -8.15)"/><circle class="cls-2" cx="21.85" cy="21.85" r="21.35"/></svg>