<svg id="LicenseScan_Icon_About_active" xmlns="http://www.w3.org/2000/svg" viewBox="0 0 42.69 42.69"><defs><style>.cls-1{fill:#008fa1;}</style></defs><title>LicenseScan_Icon_About_active</title><circle class="cls-1" cx="21.35" cy="21.35" r="21.35"/><path style="fill:#fff;" d="M30.8,19a1.48,1.48,0,0,1,1,.35,1.52,1.52,0,0,1,.5,1.2,1.45,1.45,0,0,1-.38,1,1.61,1.61,0,0,1-2.24.06,1.39,1.39,0,0,1-.44-1.07,1.51,1.51,0,0,1,.47-1.16A1.58,1.58,0,0,1,30.8,19Zm-1.14,6h2.21V39.3H29.65Z" transform="translate(-9.65 -8.65)"/></svg>